<svg width="80" height="80" viewBox="0 0 80 80" fill="none" xmlns="http://www.w3.org/2000/svg">
<circle cx="40" cy="40" r="40" fill="url(#paint0_linear_25_273)"/>
<g clip-path="url(#clip0_25_273)">
<path fill-rule="evenodd" clip-rule="evenodd" d="M39.064 26.9267C39.5902 26.7298 40.1651 26.7041 40.7067 26.8533L40.936 26.9267L50.2693 30.4267C50.7426 30.6041 51.1556 30.9124 51.4604 31.3156C51.7652 31.7188 51.9491 32.2003 51.9907 32.704L52 32.924V40.0747C51.9999 42.2352 51.4166 44.3557 50.3115 46.2122C49.2064 48.0688 47.6205 49.5926 45.7213 50.6227L45.3667 50.808L40.8947 53.044C40.6484 53.1669 40.3795 53.2377 40.1046 53.252C39.8298 53.2662 39.5549 53.2235 39.2973 53.1267L39.1053 53.044L34.6333 50.808C32.7008 49.8417 31.065 48.3716 29.8987 46.5528C28.7323 44.734 28.0786 42.6341 28.0067 40.4747L28 40.0747V32.924C28 32.4188 28.1435 31.9241 28.4138 31.4973C28.6841 31.0705 29.07 30.7293 29.5267 30.5133L29.7307 30.4267L39.064 26.9267ZM44.5773 35.5053L38.4467 41.636L36.0893 39.2787C35.8391 39.0286 35.4999 38.8883 35.1462 38.8884C34.7925 38.8885 34.4533 39.0291 34.2033 39.2793C33.9533 39.5295 33.8129 39.8688 33.8131 40.2225C33.8132 40.5762 33.9538 40.9153 34.204 41.1653L37.4093 44.3707C37.5455 44.5069 37.7072 44.615 37.8852 44.6888C38.0632 44.7625 38.254 44.8005 38.4467 44.8005C38.6393 44.8005 38.8301 44.7625 39.0081 44.6888C39.1861 44.615 39.3478 44.5069 39.484 44.3707L46.4627 37.3907C46.59 37.2677 46.6916 37.1205 46.7615 36.9579C46.8313 36.7952 46.8681 36.6202 46.8697 36.4432C46.8712 36.2662 46.8375 36.0906 46.7704 35.9267C46.7034 35.7629 46.6044 35.614 46.4792 35.4888C46.354 35.3636 46.2051 35.2646 46.0413 35.1976C45.8774 35.1305 45.7018 35.0968 45.5248 35.0983C45.3478 35.0999 45.1728 35.1366 45.0101 35.2065C44.8475 35.2764 44.7003 35.378 44.5773 35.5053Z" fill="white"/>
</g>
<defs>
<linearGradient id="paint0_linear_25_273" x1="1.29032" y1="3.75" x2="92.2011" y2="20.2418" gradientUnits="userSpaceOnUse">
<stop stop-color="#4AA48D"/>
<stop offset="1" stop-color="#5EC48A"/>
</linearGradient>
<clipPath id="clip0_25_273">
<rect width="32" height="32" fill="white" transform="translate(24 24)"/>
</clipPath>
</defs>
</svg>
