<svg width="80" height="80" viewBox="0 0 80 80" fill="none" xmlns="http://www.w3.org/2000/svg">
<circle cx="40" cy="40" r="40" fill="url(#paint0_linear_25_290)"/>
<path d="M25 37.8312C25.0006 35.4924 25.7868 33.2166 27.2413 31.3438C28.6957 29.4711 30.7403 28.102 33.0693 27.4413C35.3984 26.7806 37.8869 26.8636 40.1629 27.6781C42.4389 28.4925 44.3802 29.9946 45.6966 31.9598C47.013 33.925 47.6338 36.2478 47.4663 38.5811C47.2988 40.9143 46.352 43.1327 44.7672 44.9047C43.1825 46.6766 41.0451 47.907 38.6744 48.4118C36.3036 48.9167 33.827 48.669 31.6145 47.7057C29.7281 48.1246 27.6962 48.4858 26.762 48.6475C26.5232 48.6886 26.2777 48.6731 26.0466 48.6023C25.8154 48.5315 25.6057 48.4075 25.4355 48.2411C25.2652 48.0747 25.1396 47.8709 25.0695 47.6472C24.9994 47.4236 24.9868 47.1868 25.033 46.9575C25.2099 46.0764 25.6028 44.187 26.0542 42.4175C25.3576 40.9818 24.9977 39.416 25 37.8312ZM34.2132 31.7745C33.5504 32.1154 33.0286 32.6455 32.6342 33.349C32.5051 33.6003 32.4822 33.89 32.5703 34.1573C32.6584 34.4245 32.8506 34.6484 33.1065 34.782C33.3624 34.9156 33.6621 34.9483 33.9426 34.8734C34.2231 34.7985 34.4626 34.6218 34.6106 34.3804C34.831 33.9903 35.0574 33.7968 35.2734 33.687C35.4983 33.57 35.8042 33.4992 36.2466 33.4992C36.5825 33.4992 36.9768 33.6133 37.2663 33.843C37.5227 34.0452 37.7461 34.3688 37.7461 34.9423C37.7461 35.2239 37.6336 35.3539 36.8644 35.9361C36.1896 36.4474 35.1219 37.2765 35.1219 38.9146C35.1219 39.2019 35.2404 39.4775 35.4513 39.6806C35.6622 39.8838 35.9483 39.998 36.2466 39.998C36.5448 39.998 36.8309 39.8838 37.0418 39.6806C37.2527 39.4775 37.3712 39.2019 37.3712 38.9146C37.3712 38.3801 37.6172 38.1216 38.253 37.6391L38.3804 37.5452C38.9607 37.1148 39.9954 36.3506 39.9954 34.9423C39.9954 33.7173 39.4691 32.7784 38.6938 32.166C38 31.6285 37.1369 31.3345 36.2466 31.3325C35.5643 31.3325 34.864 31.4394 34.2132 31.7745ZM37.7461 42.8869C37.7461 42.5038 37.5881 42.1364 37.3069 41.8655C37.0257 41.5946 36.6443 41.4424 36.2466 41.4424C35.8489 41.4424 35.4675 41.5946 35.1862 41.8655C34.905 42.1364 34.747 42.5038 34.747 42.8869C34.747 43.27 34.905 43.6374 35.1862 43.9083C35.4675 44.1792 35.8489 44.3314 36.2466 44.3314C36.6443 44.3314 37.0257 44.1792 37.3069 43.9083C37.5881 43.6374 37.7461 43.27 37.7461 42.8869ZM36.0966 50.1094C38.1744 51.97 40.9074 53.0024 43.7443 52.9983C45.3416 53.0004 46.921 52.6734 48.3764 52.0392C50.2658 52.4581 52.3067 52.8192 53.2469 52.9781C53.486 53.0188 53.7319 53.0026 53.9631 52.9311C54.1943 52.8596 54.404 52.7348 54.5738 52.5676C54.7437 52.4004 54.8687 52.1959 54.938 51.9716C55.0072 51.7474 55.0187 51.5103 54.9713 51.2808C54.6603 49.7639 54.3153 48.2536 53.9367 46.7509C54.6034 45.3757 54.9629 43.881 54.9918 42.3634C55.0207 40.8459 54.7184 39.3394 54.1045 37.9416C53.4905 36.5438 52.5786 35.2858 51.4278 34.249C50.2771 33.2123 48.9131 32.4199 47.4242 31.9233C48.496 33.804 49.0376 35.9224 48.9949 38.0675C48.9522 40.2126 48.3267 42.3094 47.1808 44.1492C46.0349 45.9889 44.4086 47.5073 42.4638 48.553C40.519 49.5988 38.3237 50.1354 36.0966 50.1094Z" fill="white"/>
<defs>
<linearGradient id="paint0_linear_25_290" x1="1.29032" y1="3.75" x2="92.2011" y2="20.2418" gradientUnits="userSpaceOnUse">
<stop stop-color="#4AA48D"/>
<stop offset="1" stop-color="#5EC48A"/>
</linearGradient>
</defs>
</svg>
