<svg width="626" height="571" viewBox="0 0 626 571" fill="none" xmlns="http://www.w3.org/2000/svg">
<path d="M537.009 124.61C561.318 156.195 559.385 203.288 536.493 253.957C513.606 304.614 469.793 358.78 410.472 404.435C351.151 450.09 287.573 478.573 232.744 487.727C177.904 496.883 131.885 486.695 107.577 455.11C83.2682 423.525 85.2015 376.431 108.093 325.763C130.98 275.106 174.793 220.939 234.114 175.285C293.435 129.63 357.013 101.146 411.842 91.9924C466.682 82.8363 512.701 93.0249 537.009 124.61Z" stroke="url(#paint0_linear_19_120)" stroke-width="0.5"/>
<path d="M517.963 114.926C542.271 146.511 540.338 193.604 517.446 244.272C494.559 294.93 450.746 349.096 391.425 394.751C332.104 440.405 268.526 468.889 213.697 478.043C158.857 487.199 112.838 477.01 88.5298 445.425C64.2213 413.84 66.1546 366.747 89.0466 316.079C111.934 265.421 155.746 211.255 215.067 165.6C274.388 119.946 337.966 91.4621 392.795 82.3081C447.636 73.152 493.654 83.3405 517.963 114.926Z" stroke="url(#paint1_linear_19_120)" stroke-width="0.5"/>
<defs>
<linearGradient id="paint0_linear_19_120" x1="34.2607" y1="345.913" x2="604.845" y2="151.441" gradientUnits="userSpaceOnUse">
<stop stop-color="#4AA48D"/>
<stop offset="1" stop-color="#5EC48A"/>
</linearGradient>
<linearGradient id="paint1_linear_19_120" x1="15.2138" y1="336.229" x2="585.799" y2="141.757" gradientUnits="userSpaceOnUse">
<stop stop-color="#4AA48D"/>
<stop offset="1" stop-color="#5EC48A"/>
</linearGradient>
</defs>
</svg>
