<svg width="19" height="19" viewBox="0 0 19 19" fill="none" xmlns="http://www.w3.org/2000/svg">
<path d="M18.7125 14.4158C18.5467 15.6818 17.9267 16.8445 16.9679 17.6877C16.0092 18.5309 14.7768 18.9973 13.5 19.0001C6.05625 19.0001 0 12.9439 0 5.50013C0.00281471 4.22331 0.469194 2.99095 1.31243 2.03218C2.15566 1.07342 3.31837 0.453477 4.58437 0.287629C4.90711 0.251846 5.23284 0.319794 5.51435 0.48162C5.79586 0.643446 6.01851 0.890736 6.15 1.18763L8.03437 5.5845C8.13212 5.81273 8.17131 6.06176 8.14839 6.30897C8.12547 6.55619 8.04116 6.79376 7.90312 7.00013L6.34687 9.38138C7.05158 10.8115 8.21273 11.9661 9.64687 12.6626L12 11.097C12.2061 10.958 12.4443 10.8739 12.692 10.8526C12.9397 10.8313 13.1888 10.8734 13.4156 10.9751L17.8125 12.8501C18.1094 12.9816 18.3567 13.2043 18.5185 13.4858C18.6803 13.7673 18.7483 14.093 18.7125 14.4158Z" fill="#179178"/>
</svg>
