<svg width="977" height="957" viewBox="0 0 977 957" fill="none" xmlns="http://www.w3.org/2000/svg">
<path d="M812.391 176.081C857.701 221.391 864.37 296.844 838.417 382.285C812.469 467.714 753.923 563.059 668.922 648.061C583.921 733.062 488.575 791.607 403.146 817.556C317.706 843.508 242.252 836.839 196.943 791.53C151.633 746.22 144.964 670.767 170.916 585.326C196.865 499.897 255.41 404.552 340.412 319.55C425.413 234.549 520.759 176.004 606.188 150.055C691.628 124.103 767.082 130.772 812.391 176.081Z" stroke="#179178" stroke-width="0.5"/>
<path d="M780.057 164.609C825.367 209.918 832.036 285.372 806.084 370.812C780.135 456.241 721.589 551.587 636.588 636.588C551.587 721.589 456.241 780.135 370.812 806.083C285.372 832.036 209.918 825.367 164.609 780.057C119.299 734.747 112.63 659.294 138.582 573.854C164.531 488.425 223.076 393.079 308.078 308.078C393.079 223.076 488.425 164.531 573.854 138.582C659.294 112.63 734.748 119.299 780.057 164.609Z" stroke="#179178" stroke-width="0.5"/>
</svg>
