<svg width="20" height="20" viewBox="0 0 20 20" fill="none" xmlns="http://www.w3.org/2000/svg">
<path d="M10 19C14.9706 19 19 14.9706 19 10C19 5.02944 14.9706 1 10 1C5.02944 1 1 5.02944 1 10C1 14.9706 5.02944 19 10 19Z" stroke="#515C65" stroke-width="1.5" stroke-linecap="round" stroke-linejoin="round"/>
<path d="M1.5127 7H18.4875" stroke="#515C65" stroke-width="1.5" stroke-linecap="round" stroke-linejoin="round"/>
<path d="M1.5127 13H18.4874" stroke="#515C65" stroke-width="1.5" stroke-linecap="round" stroke-linejoin="round"/>
<path d="M10 18.758C12.0711 18.758 13.75 14.8367 13.75 9.99961C13.75 5.16248 12.0711 1.24121 10 1.24121C7.92893 1.24121 6.25 5.16248 6.25 9.99961C6.25 14.8367 7.92893 18.758 10 18.758Z" stroke="#515C65" stroke-width="1.5" stroke-linecap="round" stroke-linejoin="round"/>
</svg>
